<svg width="256" height="256" viewBox="0 0 256 256" fill="none" xmlns="http://www.w3.org/2000/svg">
  <rect width="256" height="256" rx="64" fill="url(#bg1)"/>
  <rect x="42" y="42" width="172" height="172" rx="52" fill="white" fill-opacity="0.14"/>
  <path d="M82 76C82 71.5817 85.5817 68 90 68H112C116.418 68 120 71.5817 120 76V144H160C177.673 144 192 158.327 192 176C192 193.673 177.673 208 160 208H154C149.582 208 146 204.418 146 200V184C146 179.582 149.582 176 154 176H158C162.418 176 166 172.418 166 168C166 163.582 162.418 160 158 160H100C90.0589 160 82 151.941 82 142V76Z" fill="white"/>
  <circle cx="166" cy="176" r="18" fill="#B7FFCE"/>
  <path d="M163.5 168L171 175.5L163.5 183" stroke="#113A2F" stroke-width="8" stroke-linecap="round" stroke-linejoin="round"/>
  <defs>
    <linearGradient id="bg1" x1="24" y1="22" x2="232" y2="236" gradientUnits="userSpaceOnUse">
      <stop stop-color="#4B8CFF"/>
      <stop offset="1" stop-color="#2356D8"/>
    </linearGradient>
  </defs>
</svg>
